<?xml version="1.0" encoding="UTF-8"?>
<svg id="Layer_2" data-name="Layer 2" xmlns="http://www.w3.org/2000/svg" viewBox="0 0 16 16">
  <defs>
    <style>
      .cls-1 {
        fill: #fff;
      }

      .cls-2 {
        fill: #212121;
      }
    </style>
  </defs>
  <g id="Layer_1-2" data-name="Layer 1">
    <g>
      <rect class="cls-2" x="0" y="0" width="16" height="16" rx="2.7" ry="2.7"/>
      <path class="cls-1" d="M11.87,8.99c-.16-.34-.41-.61-.72-.8-.06-.04-.04-.13,.04-.13h2.25c.05,0,.09-.05,.07-.1l-1.63-4.06c-.29-.64-.94-1.05-1.64-1.05H5.77c-.7,0-1.35,.41-1.64,1.05l-1.63,4.06s.02,.1,.07,.1h2.25c.07,0,.1,.1,.04,.13-.31,.18-.56,.46-.72,.8l-1.63,4.06s.02,.1,.07,.1h2.78s.06-.02,.07-.05l.78-2.04c.1-.24,.33-.39,.59-.39h2.44c.26,0,.49,.16,.59,.39l.78,2.04s.04,.05,.07,.05h2.78c.05,0,.09-.05,.07-.1l-1.63-4.06Zm-1.42-1.04c-.07,0-.15-.01-.22-.01H5.77c-.07,0-.15,0-.22,.01-.05,0-.1-.05-.08-.1l.72-1.89c.1-.24,.33-.39,.59-.39h2.44c.26,0,.49,.16,.59,.39l.72,1.89c.02,.05-.02,.11-.08,.1Z"/>
    </g>
  </g>
</svg>