<svg width="17" height="15" viewBox="0 0 17 15" fill="none" xmlns="http://www.w3.org/2000/svg">
<path d="M12.7988 7.58256H16.0995C16.1767 7.58256 16.2281 7.50616 16.1992 7.43613L13.7993 1.52797C13.365 0.598454 12.4192 -1.90735e-06 11.3866 -1.90735e-06H4.82076C3.78811 -1.90735e-06 2.84232 0.598454 2.40803 1.52797L0.00816965 7.43613C-0.0207831 7.50616 0.0306884 7.58256 0.107896 7.58256H3.40851C3.51788 7.58256 3.55649 7.72262 3.4632 7.77992C3.0096 8.04732 2.63643 8.44523 2.40481 8.93863L0.00816965 14.8436C-0.0207831 14.9136 0.0306884 14.99 0.107896 14.99H4.19345C4.23849 14.99 4.27709 14.9614 4.29317 14.92L5.44485 11.9468C5.58961 11.5999 5.93061 11.3738 6.31021 11.3738H9.89392C10.2735 11.3738 10.6145 11.5999 10.7593 11.9468L11.911 14.92C11.927 14.9614 11.9656 14.99 12.0107 14.99H16.0962C16.1734 14.99 16.2249 14.9136 16.196 14.8436L13.7961 8.93545C13.5677 8.44523 13.1945 8.04413 12.7409 7.77674C12.6476 7.72262 12.6895 7.57938 12.7956 7.57938L12.7988 7.58256ZM4.82076 7.40748C4.71138 7.40748 4.602 7.41385 4.49584 7.42976C4.41542 7.43931 4.3543 7.35973 4.38325 7.28651L5.44807 4.54253C5.59283 4.19555 5.93383 3.96954 6.31343 3.96954H9.89714C10.2767 3.96954 10.6177 4.19555 10.7625 4.54253L11.8241 7.28651C11.8531 7.35973 11.7919 7.43931 11.7115 7.42976C11.6053 7.41703 11.496 7.40748 11.3834 7.40748H4.82076Z" fill="white"/>
</svg>
