<svg width="150" height="27" viewBox="0 0 150 27" fill="none" xmlns="http://www.w3.org/2000/svg">
<path d="M78.9264 21.9518C77.6576 19.2042 67.8863 0.526833 67.8863 0.526833H58.6212C58.6212 0.526833 59.7898 1.58955 59.7898 3.24143C59.7898 5.98907 50.4747 20.1347 49.1559 22.3207C47.7202 24.6994 46.0342 26.4559 46.0342 26.4559H53.0455C53.0455 26.4559 52.3444 25.4042 52.3444 23.0365C52.3444 20.6688 54.381 17.6844 54.381 17.6844H69.2607C69.2607 17.6844 70.7075 20.6193 70.7075 22.9429C70.7075 25.4483 69.7949 26.4504 69.7949 26.4504H82.2373C82.2373 26.4504 80.2062 24.7049 78.9375 21.9628L78.9264 21.9518ZM55.5552 15.7297L61.4369 4.45832L68.4483 15.7297H55.5552Z" fill="white"/>
<path d="M113.483 24.4744V5.0482C113.483 1.84354 115.069 0.5826 115.069 0.5826H105.303C105.303 0.5826 107.133 1.94816 107.133 4.96561V19.8271C107.133 23.8081 105.303 26.4677 105.303 26.4677H129.036V22.5417C129.036 22.5417 126.96 24.4744 124.278 24.4744H113.483Z" fill="white"/>
<path d="M144.155 2.54834C146.609 2.54834 149.174 4.76738 149.174 4.76738L148.656 0.5826H122.169L121.635 4.92706C121.635 4.92706 124.306 2.53183 126.865 2.53183H131.99V20.2345C131.99 23.7641 130.265 26.4732 130.265 26.4732H140.009C140.009 26.4732 138.301 23.8246 138.301 20.2345V2.54834H144.166H144.155Z" fill="white"/>
<path d="M100.428 4.89953C100.428 5.26845 100.428 14.4474 100.428 16.9143C100.428 20.8457 98.4357 24.4689 93.2662 24.4689C88.5252 24.4689 86.0156 21.6111 86.0156 16.4297C86.0156 13.6931 86.0156 9.32659 86.0156 5.11427C86.0156 2.53183 86.5776 1.32595 87.5514 0.5826H77.8857C77.8857 0.5826 79.7109 1.43057 79.7109 4.96561C79.7109 8.08767 79.7109 14.1831 79.7109 16.2755C79.7109 21.8259 83.467 26.4732 92.1032 26.4732C100.194 26.4732 102.448 22.0076 102.448 16.5729V5.02067C102.448 2.0748 103.828 0.769813 104.034 0.5826H98.6138C98.6138 0.5826 100.428 2.35562 100.433 4.89953H100.428Z" fill="white"/>
<path d="M22.1389 13.6428H27.8481C27.9817 13.6428 28.0707 13.5107 28.0206 13.3895L23.8695 3.16985C23.1182 1.56201 21.4823 0.526833 19.696 0.526833H8.33873C6.5525 0.526833 4.91652 1.56201 4.1653 3.16985L0.0141315 13.3895C-0.0359497 13.5107 0.0530835 13.6428 0.186633 13.6428H5.89588C6.08508 13.6428 6.15185 13.8851 5.99048 13.9842C5.20588 14.4467 4.56039 15.135 4.15974 15.9885L0.0141315 26.2027C-0.0359497 26.3238 0.0530835 26.4559 0.186633 26.4559H7.25364C7.33154 26.4559 7.39832 26.4064 7.42614 26.3348L9.41826 21.1919C9.66866 20.5917 10.2585 20.2008 10.9151 20.2008H17.1141C17.7707 20.2008 18.3605 20.5917 18.6109 21.1919L20.603 26.3348C20.6309 26.4064 20.6976 26.4559 20.7756 26.4559H27.8426C27.9761 26.4559 28.0651 26.3238 28.0151 26.2027L23.8639 15.983C23.4688 15.135 22.8233 14.4412 22.0387 13.9787C21.8773 13.8851 21.9497 13.6373 22.1333 13.6373L22.1389 13.6428ZM8.33873 13.34C8.14954 13.34 7.96034 13.351 7.77671 13.3785C7.6376 13.395 7.53187 13.2574 7.58195 13.1307L9.42382 8.38431C9.67423 7.78412 10.2641 7.39317 10.9207 7.39317H17.1196C17.7762 7.39317 18.3661 7.78412 18.6165 8.38431L20.4528 13.1307C20.5029 13.2574 20.3972 13.395 20.258 13.3785C20.0744 13.3565 19.8852 13.34 19.6905 13.34H8.33873Z" fill="white"/>
</svg>
